<svg width="71" height="37" viewBox="0 0 71 37" fill="none" xmlns="http://www.w3.org/2000/svg">
<path d="M3.9407 10.1278C3.28729 10.1278 2.72621 9.98438 2.25746 9.69744C1.79155 9.41051 1.43217 9.0142 1.17933 8.50852C0.929332 8 0.804332 7.41477 0.804332 6.75284C0.804332 6.08807 0.932173 5.50142 1.18786 4.9929C1.44354 4.48153 1.80433 4.08381 2.27024 3.79972C2.73899 3.51278 3.29297 3.36932 3.93217 3.36932C4.46342 3.36932 4.93359 3.46733 5.34268 3.66335C5.75462 3.85653 6.08274 4.13068 6.32706 4.4858C6.57138 4.83807 6.71058 5.25 6.74467 5.72159H5.27024C5.21058 5.40625 5.06854 5.14347 4.84411 4.93324C4.62251 4.72017 4.32564 4.61364 3.95348 4.61364C3.63814 4.61364 3.36115 4.69886 3.12251 4.86932C2.88388 5.03693 2.6978 5.27841 2.56428 5.59375C2.43359 5.90909 2.36825 6.28693 2.36825 6.72727C2.36825 7.1733 2.43359 7.55682 2.56428 7.87784C2.69496 8.19602 2.8782 8.44176 3.11399 8.61506C3.35263 8.78551 3.63246 8.87074 3.95348 8.87074C4.18075 8.87074 4.38388 8.82812 4.56286 8.7429C4.74467 8.65483 4.89666 8.52841 5.01882 8.36364C5.14098 8.19886 5.22479 7.99858 5.27024 7.76278H6.74467C6.70774 8.22585 6.57138 8.63636 6.33558 8.99432C6.09979 9.34943 5.77876 9.62784 5.37251 9.82955C4.96626 10.0284 4.48899 10.1278 3.9407 10.1278ZM10.8665 10.1278C10.2273 10.1278 9.6733 9.98722 9.20455 9.70597C8.7358 9.42472 8.37216 9.03125 8.11364 8.52557C7.85795 8.01989 7.73011 7.42898 7.73011 6.75284C7.73011 6.0767 7.85795 5.48437 8.11364 4.97585C8.37216 4.46733 8.7358 4.07244 9.20455 3.79119C9.6733 3.50994 10.2273 3.36932 10.8665 3.36932C11.5057 3.36932 12.0597 3.50994 12.5284 3.79119C12.9972 4.07244 13.3594 4.46733 13.6151 4.97585C13.8736 5.48437 14.0028 6.0767 14.0028 6.75284C14.0028 7.42898 13.8736 8.01989 13.6151 8.52557C13.3594 9.03125 12.9972 9.42472 12.5284 9.70597C12.0597 9.98722 11.5057 10.1278 10.8665 10.1278ZM10.875 8.89205C11.2216 8.89205 11.5114 8.79687 11.7443 8.60653C11.9773 8.41335 12.1506 8.15483 12.2642 7.83097C12.3807 7.5071 12.4389 7.14631 12.4389 6.74858C12.4389 6.34801 12.3807 5.9858 12.2642 5.66193C12.1506 5.33523 11.9773 5.07528 11.7443 4.8821C11.5114 4.68892 11.2216 4.59233 10.875 4.59233C10.5199 4.59233 10.2244 4.68892 9.98864 4.8821C9.75568 5.07528 9.58097 5.33523 9.46449 5.66193C9.35085 5.9858 9.29403 6.34801 9.29403 6.74858C9.29403 7.14631 9.35085 7.5071 9.46449 7.83097C9.58097 8.15483 9.75568 8.41335 9.98864 8.60653C10.2244 8.79687 10.5199 8.89205 10.875 8.89205ZM16.8548 6.16477V10H15.3121V3.45455H16.7866V4.56676H16.8633C17.0138 4.20028 17.2539 3.90909 17.5835 3.69318C17.9158 3.47727 18.3263 3.36932 18.815 3.36932C19.2667 3.36932 19.6602 3.46591 19.9954 3.65909C20.3335 3.85227 20.5948 4.1321 20.7795 4.49858C20.967 4.86506 21.0593 5.30966 21.0565 5.83239V10H19.5138V6.07102C19.5138 5.63352 19.4002 5.29119 19.1729 5.04403C18.9485 4.79687 18.6374 4.6733 18.2397 4.6733C17.9698 4.6733 17.7298 4.73295 17.5195 4.85227C17.3121 4.96875 17.1488 5.13778 17.0295 5.35938C16.913 5.58097 16.8548 5.84943 16.8548 6.16477ZM25.8931 3.45455V4.64773H22.1303V3.45455H25.8931ZM23.0593 1.88636H24.6019V8.03125C24.6019 8.23864 24.6332 8.39773 24.6957 8.50852C24.761 8.61648 24.8462 8.69034 24.9513 8.73011C25.0565 8.76989 25.1729 8.78977 25.3008 8.78977C25.3974 8.78977 25.4854 8.78267 25.565 8.76847C25.6474 8.75426 25.7099 8.74148 25.7525 8.73011L26.0124 9.93608C25.93 9.96449 25.8121 9.99574 25.6587 10.0298C25.5082 10.0639 25.3235 10.0838 25.1048 10.0895C24.7184 10.1009 24.3704 10.0426 24.0607 9.91477C23.7511 9.78409 23.5053 9.58239 23.3235 9.30966C23.1445 9.03693 23.0565 8.69602 23.0593 8.28693V1.88636ZM30.0107 10.1278C29.3544 10.1278 28.7876 9.99148 28.3104 9.71875C27.8359 9.44318 27.4709 9.05398 27.2152 8.55114C26.9595 8.04545 26.8317 7.45028 26.8317 6.76562C26.8317 6.09233 26.9595 5.50142 27.2152 4.9929C27.4737 4.48153 27.8345 4.08381 28.2976 3.79972C28.7607 3.51278 29.3047 3.36932 29.9297 3.36932C30.3331 3.36932 30.7138 3.43466 31.0717 3.56534C31.4325 3.69318 31.7507 3.89205 32.0263 4.16193C32.3047 4.43182 32.5234 4.77557 32.6825 5.19318C32.8416 5.60795 32.9212 6.10227 32.9212 6.67614V7.14915H27.5561V6.10938H31.4425C31.4396 5.81392 31.3757 5.55114 31.2507 5.32102C31.1257 5.08807 30.951 4.90483 30.7266 4.77131C30.505 4.63778 30.2464 4.57102 29.951 4.57102C29.6357 4.57102 29.3587 4.64773 29.12 4.80114C28.8814 4.9517 28.6953 5.15057 28.5618 5.39773C28.4311 5.64205 28.3643 5.91051 28.3615 6.20312V7.1108C28.3615 7.49148 28.4311 7.81818 28.5703 8.09091C28.7095 8.3608 28.9041 8.56818 29.1541 8.71307C29.4041 8.85511 29.6967 8.92614 30.032 8.92614C30.2564 8.92614 30.4595 8.89489 30.6413 8.83239C30.8232 8.76705 30.9808 8.67188 31.1143 8.54688C31.2479 8.42188 31.3487 8.26705 31.4169 8.08239L32.8572 8.24432C32.7663 8.625 32.593 8.95739 32.3374 9.24148C32.0845 9.52273 31.7607 9.74148 31.3658 9.89773C30.9709 10.0511 30.5192 10.1278 30.0107 10.1278ZM35.3469 3.45455L36.668 5.87074L38.0103 3.45455H39.6424L37.6694 6.72727L39.6765 10H38.0529L36.668 7.64347L35.2958 10H33.6594L35.6538 6.72727L33.7106 3.45455H35.3469ZM44.104 3.45455V4.64773H40.3413V3.45455H44.104ZM41.2702 1.88636H42.8129V8.03125C42.8129 8.23864 42.8441 8.39773 42.9066 8.50852C42.9719 8.61648 43.0572 8.69034 43.1623 8.73011C43.2674 8.76989 43.3839 8.78977 43.5117 8.78977C43.6083 8.78977 43.6964 8.78267 43.7759 8.76847C43.8583 8.75426 43.9208 8.74148 43.9634 8.73011L44.2234 9.93608C44.141 9.96449 44.0231 9.99574 43.8697 10.0298C43.7191 10.0639 43.5344 10.0838 43.3157 10.0895C42.9293 10.1009 42.5813 10.0426 42.2717 9.91477C41.962 9.78409 41.7163 9.58239 41.5344 9.30966C41.3555 9.03693 41.2674 8.69602 41.2702 8.28693V1.88636ZM48.7095 3.45455V4.64773H44.8402V3.45455H48.7095ZM45.8075 10V2.83665C45.8075 2.39631 45.8984 2.02983 46.0803 1.73722C46.2649 1.4446 46.5121 1.22585 46.8217 1.08097C47.1314 0.936079 47.4751 0.863636 47.853 0.863636C48.12 0.863636 48.3572 0.884943 48.5646 0.927557C48.772 0.97017 48.9254 1.00852 49.0249 1.04261L48.718 2.2358C48.6527 2.21591 48.5703 2.19602 48.4709 2.17614C48.3714 2.15341 48.2607 2.14205 48.1385 2.14205C47.8516 2.14205 47.6484 2.21165 47.5291 2.35085C47.4126 2.48722 47.3544 2.68324 47.3544 2.93892V10H45.8075ZM52.5266 10.1278C51.8874 10.1278 51.3335 9.98722 50.8647 9.70597C50.396 9.42472 50.0323 9.03125 49.7738 8.52557C49.5181 8.01989 49.3903 7.42898 49.3903 6.75284C49.3903 6.0767 49.5181 5.48437 49.7738 4.97585C50.0323 4.46733 50.396 4.07244 50.8647 3.79119C51.3335 3.50994 51.8874 3.36932 52.5266 3.36932C53.1658 3.36932 53.7198 3.50994 54.1886 3.79119C54.6573 4.07244 55.0195 4.46733 55.2752 4.97585C55.5337 5.48437 55.663 6.0767 55.663 6.75284C55.663 7.42898 55.5337 8.01989 55.2752 8.52557C55.0195 9.03125 54.6573 9.42472 54.1886 9.70597C53.7198 9.98722 53.1658 10.1278 52.5266 10.1278ZM52.5352 8.89205C52.8817 8.89205 53.1715 8.79687 53.4045 8.60653C53.6374 8.41335 53.8107 8.15483 53.9244 7.83097C54.0408 7.5071 54.0991 7.14631 54.0991 6.74858C54.0991 6.34801 54.0408 5.9858 53.9244 5.66193C53.8107 5.33523 53.6374 5.07528 53.4045 4.8821C53.1715 4.68892 52.8817 4.59233 52.5352 4.59233C52.18 4.59233 51.8846 4.68892 51.6488 4.8821C51.4158 5.07528 51.2411 5.33523 51.1246 5.66193C51.011 5.9858 50.9542 6.34801 50.9542 6.74858C50.9542 7.14631 51.011 7.5071 51.1246 7.83097C51.2411 8.15483 51.4158 8.41335 51.6488 8.60653C51.8846 8.79687 52.18 8.89205 52.5352 8.89205ZM56.9723 10V3.45455H58.468V4.54545H58.5362C58.6555 4.16761 58.8601 3.87642 59.1499 3.67188C59.4425 3.46449 59.7763 3.3608 60.1513 3.3608C60.2365 3.3608 60.3317 3.36506 60.4368 3.37358C60.5447 3.37926 60.6342 3.3892 60.7053 3.40341V4.82244C60.6399 4.79972 60.5362 4.77983 60.3942 4.76278C60.255 4.7429 60.12 4.73295 59.9893 4.73295C59.7081 4.73295 59.4553 4.79403 59.2308 4.91619C59.0092 5.03551 58.8345 5.2017 58.7067 5.41477C58.5788 5.62784 58.5149 5.87358 58.5149 6.15199V10H56.9723ZM61.7301 10V3.45455H63.2045V4.56676H63.2812C63.4176 4.19176 63.6435 3.89915 63.9588 3.68892C64.2741 3.47585 64.6506 3.36932 65.0881 3.36932C65.5312 3.36932 65.9048 3.47727 66.2088 3.69318C66.5156 3.90625 66.7315 4.19744 66.8565 4.56676H66.9247C67.0696 4.20312 67.3139 3.91335 67.6577 3.69744C68.0043 3.47869 68.4148 3.36932 68.8892 3.36932C69.4915 3.36932 69.983 3.55966 70.3636 3.94034C70.7443 4.32102 70.9347 4.87642 70.9347 5.60653V10H69.3878V5.84517C69.3878 5.43892 69.2798 5.14205 69.0639 4.95455C68.848 4.7642 68.5838 4.66903 68.2713 4.66903C67.8991 4.66903 67.608 4.78551 67.3977 5.01847C67.1903 5.24858 67.0866 5.5483 67.0866 5.91761V10H65.5739V5.78125C65.5739 5.44318 65.4716 5.1733 65.267 4.97159C65.0653 4.76989 64.8011 4.66903 64.4744 4.66903C64.2528 4.66903 64.0511 4.72585 63.8693 4.83949C63.6875 4.95028 63.5426 5.10795 63.4347 5.3125C63.3267 5.5142 63.2727 5.75 63.2727 6.01989V10H61.7301ZM13.4798 22.1278C12.8263 22.1278 12.2653 21.9844 11.7965 21.6974C11.3306 21.4105 10.9712 21.0142 10.7184 20.5085C10.4684 20 10.3434 19.4148 10.3434 18.7528C10.3434 18.0881 10.4712 17.5014 10.7269 16.9929C10.9826 16.4815 11.3434 16.0838 11.8093 15.7997C12.2781 15.5128 12.832 15.3693 13.4712 15.3693C14.0025 15.3693 14.4727 15.4673 14.8817 15.6634C15.2937 15.8565 15.6218 16.1307 15.8661 16.4858C16.1104 16.8381 16.2496 17.25 16.2837 17.7216H14.8093C14.7496 17.4062 14.6076 17.1435 14.3832 16.9332C14.1616 16.7202 13.8647 16.6136 13.4925 16.6136C13.1772 16.6136 12.9002 16.6989 12.6616 16.8693C12.4229 17.0369 12.2369 17.2784 12.1033 17.5938C11.9727 17.9091 11.9073 18.2869 11.9073 18.7273C11.9073 19.1733 11.9727 19.5568 12.1033 19.8778C12.234 20.196 12.4173 20.4418 12.6531 20.6151C12.8917 20.7855 13.1715 20.8707 13.4925 20.8707C13.7198 20.8707 13.9229 20.8281 14.1019 20.7429C14.2837 20.6548 14.4357 20.5284 14.5579 20.3636C14.68 20.1989 14.7638 19.9986 14.8093 19.7628H16.2837C16.2468 20.2259 16.1104 20.6364 15.8746 20.9943C15.6388 21.3494 15.3178 21.6278 14.9116 21.8295C14.5053 22.0284 14.0281 22.1278 13.4798 22.1278ZM19.4339 22.1321C19.0192 22.1321 18.6456 22.0582 18.3132 21.9105C17.9837 21.7599 17.7223 21.5384 17.5291 21.2457C17.3388 20.9531 17.2436 20.5923 17.2436 20.1634C17.2436 19.794 17.3118 19.4886 17.4482 19.2472C17.5845 19.0057 17.7706 18.8125 18.0064 18.6676C18.2422 18.5227 18.5078 18.4134 18.8033 18.3395C19.1016 18.2628 19.4098 18.2074 19.728 18.1733C20.1115 18.1335 20.4226 18.098 20.6612 18.0668C20.8999 18.0327 21.0732 17.9815 21.1811 17.9134C21.2919 17.8423 21.3473 17.733 21.3473 17.5852V17.5597C21.3473 17.2386 21.2521 16.9901 21.0618 16.8139C20.8714 16.6378 20.5973 16.5497 20.2393 16.5497C19.8615 16.5497 19.5618 16.6321 19.3402 16.7969C19.1214 16.9616 18.9737 17.1562 18.897 17.3807L17.4567 17.1761C17.5703 16.7784 17.7578 16.446 18.0192 16.179C18.2805 15.9091 18.6001 15.7074 18.978 15.5739C19.3558 15.4375 19.7734 15.3693 20.2308 15.3693C20.5462 15.3693 20.8601 15.4062 21.1726 15.4801C21.4851 15.554 21.7706 15.6761 22.0291 15.8466C22.2876 16.0142 22.495 16.2429 22.6513 16.5327C22.8104 16.8224 22.8899 17.1847 22.8899 17.6193V22H21.407V21.1009H21.3558C21.2621 21.2827 21.13 21.4531 20.9595 21.6122C20.7919 21.7685 20.5803 21.8949 20.3246 21.9915C20.0717 22.0852 19.7749 22.1321 19.4339 22.1321ZM19.8345 20.9986C20.1442 20.9986 20.4126 20.9375 20.6399 20.8153C20.8672 20.6903 21.0419 20.5256 21.1641 20.321C21.2891 20.1165 21.3516 19.8935 21.3516 19.652V18.8807C21.3033 18.9205 21.2209 18.9574 21.1044 18.9915C20.9908 19.0256 20.8629 19.0554 20.7209 19.081C20.5788 19.1065 20.4382 19.1293 20.299 19.1491C20.1598 19.169 20.0391 19.1861 19.9368 19.2003C19.7067 19.2315 19.5007 19.2827 19.3189 19.3537C19.1371 19.4247 18.9936 19.5241 18.8885 19.652C18.7834 19.777 18.7308 19.9389 18.7308 20.1378C18.7308 20.4219 18.8345 20.6364 19.0419 20.7812C19.2493 20.9261 19.5135 20.9986 19.8345 20.9986ZM24.4411 24.4545V15.4545H25.9581V16.5369H26.0476C26.1271 16.3778 26.2393 16.2088 26.3842 16.0298C26.5291 15.848 26.7251 15.6932 26.9723 15.5653C27.2195 15.4347 27.5348 15.3693 27.9183 15.3693C28.424 15.3693 28.88 15.4986 29.2862 15.7571C29.6953 16.0128 30.0192 16.392 30.2578 16.8949C30.4993 17.3949 30.62 18.0085 30.62 18.7358C30.62 19.4545 30.5021 20.0653 30.2663 20.5682C30.0305 21.071 29.7095 21.4545 29.3033 21.7188C28.897 21.983 28.4368 22.1151 27.9226 22.1151C27.5476 22.1151 27.2365 22.0526 26.9893 21.9276C26.7422 21.8026 26.5433 21.652 26.3928 21.4759C26.245 21.2969 26.13 21.1278 26.0476 20.9688H25.9837V24.4545H24.4411ZM25.9538 18.7273C25.9538 19.1506 26.0135 19.5213 26.1328 19.8395C26.255 20.1577 26.4297 20.4062 26.657 20.5852C26.8871 20.7614 27.1655 20.8494 27.4922 20.8494C27.8331 20.8494 28.1186 20.7585 28.3487 20.5767C28.5788 20.392 28.7521 20.1406 28.8686 19.8224C28.9879 19.5014 29.0476 19.1364 29.0476 18.7273C29.0476 18.321 28.9893 17.9602 28.8729 17.6449C28.7564 17.3295 28.5831 17.0824 28.353 16.9034C28.1229 16.7244 27.8359 16.6349 27.4922 16.6349C27.1626 16.6349 26.8828 16.7216 26.6527 16.8949C26.4226 17.0682 26.2479 17.3111 26.1286 17.6236C26.0121 17.9361 25.9538 18.304 25.9538 18.7273ZM35.2095 15.4545V16.6477H31.4467V15.4545H35.2095ZM32.3757 13.8864H33.9183V20.0312C33.9183 20.2386 33.9496 20.3977 34.0121 20.5085C34.0774 20.6165 34.1626 20.6903 34.2678 20.7301C34.3729 20.7699 34.4893 20.7898 34.6172 20.7898C34.7138 20.7898 34.8018 20.7827 34.8814 20.7685C34.9638 20.7543 35.0263 20.7415 35.0689 20.7301L35.3288 21.9361C35.2464 21.9645 35.1286 21.9957 34.9751 22.0298C34.8246 22.0639 34.6399 22.0838 34.4212 22.0895C34.0348 22.1009 33.6868 22.0426 33.3771 21.9148C33.0675 21.7841 32.8217 21.5824 32.6399 21.3097C32.4609 21.0369 32.3729 20.696 32.3757 20.2869V13.8864ZM40.6715 19.2472V15.4545H42.2141V22H40.7184V20.8366H40.6502C40.5025 21.2031 40.2596 21.5028 39.9215 21.7358C39.5863 21.9687 39.1729 22.0852 38.6815 22.0852C38.2525 22.0852 37.8732 21.9901 37.5437 21.7997C37.217 21.6065 36.9613 21.3267 36.7766 20.9602C36.592 20.5909 36.4996 20.1449 36.4996 19.6222V15.4545H38.0423V19.3835C38.0423 19.7983 38.1559 20.1278 38.3832 20.3722C38.6104 20.6165 38.9087 20.7386 39.2781 20.7386C39.5053 20.7386 39.7255 20.6832 39.9386 20.5724C40.1516 20.4616 40.3263 20.2969 40.4627 20.0781C40.6019 19.8565 40.6715 19.5795 40.6715 19.2472ZM43.8004 22V15.4545H45.2962V16.5455H45.3643C45.4837 16.1676 45.6882 15.8764 45.978 15.6719C46.2706 15.4645 46.6044 15.3608 46.9794 15.3608C47.0646 15.3608 47.1598 15.3651 47.2649 15.3736C47.3729 15.3793 47.4624 15.3892 47.5334 15.4034V16.8224C47.468 16.7997 47.3643 16.7798 47.2223 16.7628C47.0831 16.7429 46.9482 16.733 46.8175 16.733C46.5362 16.733 46.2834 16.794 46.0589 16.9162C45.8374 17.0355 45.6626 17.2017 45.5348 17.4148C45.407 17.6278 45.343 17.8736 45.343 18.152V22H43.8004ZM51.1864 22.1278C50.5302 22.1278 49.9634 21.9915 49.4862 21.7188C49.0117 21.4432 48.6467 21.054 48.391 20.5511C48.1353 20.0455 48.0075 19.4503 48.0075 18.7656C48.0075 18.0923 48.1353 17.5014 48.391 16.9929C48.6495 16.4815 49.0103 16.0838 49.4734 15.7997C49.9364 15.5128 50.4805 15.3693 51.1055 15.3693C51.5089 15.3693 51.8896 15.4347 52.2475 15.5653C52.6083 15.6932 52.9265 15.892 53.2021 16.1619C53.4805 16.4318 53.6992 16.7756 53.8583 17.1932C54.0174 17.608 54.0969 18.1023 54.0969 18.6761V19.1491H48.7319V18.1094H52.6183C52.6154 17.8139 52.5515 17.5511 52.4265 17.321C52.3015 17.0881 52.1268 16.9048 51.9023 16.7713C51.6808 16.6378 51.4222 16.571 51.1268 16.571C50.8114 16.571 50.5344 16.6477 50.2958 16.8011C50.0572 16.9517 49.8711 17.1506 49.7376 17.3977C49.6069 17.642 49.5401 17.9105 49.5373 18.2031V19.1108C49.5373 19.4915 49.6069 19.8182 49.7461 20.0909C49.8853 20.3608 50.0799 20.5682 50.3299 20.7131C50.5799 20.8551 50.8725 20.9261 51.2077 20.9261C51.4322 20.9261 51.6353 20.8949 51.8171 20.8324C51.9989 20.767 52.1566 20.6719 52.2901 20.5469C52.4237 20.4219 52.5245 20.267 52.5927 20.0824L54.033 20.2443C53.9421 20.625 53.7688 20.9574 53.5131 21.2415C53.2603 21.5227 52.9364 21.7415 52.5415 21.8977C52.1467 22.0511 51.695 22.1278 51.1864 22.1278ZM57.831 22.1151C57.3168 22.1151 56.8565 21.983 56.4503 21.7188C56.044 21.4545 55.723 21.071 55.4872 20.5682C55.2514 20.0653 55.1335 19.4545 55.1335 18.7358C55.1335 18.0085 55.2528 17.3949 55.4915 16.8949C55.733 16.392 56.0582 16.0128 56.4673 15.7571C56.8764 15.4986 57.3324 15.3693 57.8352 15.3693C58.2188 15.3693 58.5341 15.4347 58.7812 15.5653C59.0284 15.6932 59.2244 15.848 59.3693 16.0298C59.5142 16.2088 59.6264 16.3778 59.706 16.5369H59.7699V13.2727H61.3168V22H59.7997V20.9688H59.706C59.6264 21.1278 59.5114 21.2969 59.3608 21.4759C59.2102 21.652 59.0114 21.8026 58.7642 21.9276C58.517 22.0526 58.206 22.1151 57.831 22.1151ZM58.2614 20.8494C58.5881 20.8494 58.8665 20.7614 59.0966 20.5852C59.3267 20.4062 59.5014 20.1577 59.6207 19.8395C59.7401 19.5213 59.7997 19.1506 59.7997 18.7273C59.7997 18.304 59.7401 17.9361 59.6207 17.6236C59.5043 17.3111 59.331 17.0682 59.1009 16.8949C58.8736 16.7216 58.5938 16.6349 58.2614 16.6349C57.9176 16.6349 57.6307 16.7244 57.4006 16.9034C57.1705 17.0824 56.9972 17.3295 56.8807 17.6449C56.7642 17.9602 56.706 18.321 56.706 18.7273C56.706 19.1364 56.7642 19.5014 56.8807 19.8224C57 20.1406 57.1747 20.392 57.4048 20.5767C57.6378 20.7585 57.9233 20.8494 58.2614 20.8494ZM12.8805 34V27.4545H14.3549V28.5668H14.4316C14.568 28.1918 14.7939 27.8991 15.1092 27.6889C15.4245 27.4759 15.801 27.3693 16.2385 27.3693C16.6816 27.3693 17.0552 27.4773 17.3592 27.6932C17.666 27.9062 17.8819 28.1974 18.0069 28.5668H18.0751C18.22 28.2031 18.4643 27.9134 18.8081 27.6974C19.1547 27.4787 19.5652 27.3693 20.0396 27.3693C20.6419 27.3693 21.1333 27.5597 21.514 27.9403C21.8947 28.321 22.0851 28.8764 22.0851 29.6065V34H20.5382V29.8452C20.5382 29.4389 20.4302 29.142 20.2143 28.9545C19.9984 28.7642 19.7342 28.669 19.4217 28.669C19.0495 28.669 18.7583 28.7855 18.5481 29.0185C18.3407 29.2486 18.237 29.5483 18.237 29.9176V34H16.7243V29.7812C16.7243 29.4432 16.622 29.1733 16.4174 28.9716C16.2157 28.7699 15.9515 28.669 15.6248 28.669C15.4032 28.669 15.2015 28.7259 15.0197 28.8395C14.8379 28.9503 14.693 29.108 14.585 29.3125C14.4771 29.5142 14.4231 29.75 14.4231 30.0199V34H12.8805ZM26.5478 34.1278C25.8915 34.1278 25.3248 33.9915 24.8475 33.7188C24.373 33.4432 24.008 33.054 23.7523 32.5511C23.4966 32.0455 23.3688 31.4503 23.3688 30.7656C23.3688 30.0923 23.4966 29.5014 23.7523 28.9929C24.0108 28.4815 24.3716 28.0838 24.8347 27.7997C25.2978 27.5128 25.8418 27.3693 26.4668 27.3693C26.8702 27.3693 27.2509 27.4347 27.6088 27.5653C27.9696 27.6932 28.2878 27.892 28.5634 28.1619C28.8418 28.4318 29.0605 28.7756 29.2196 29.1932C29.3787 29.608 29.4583 30.1023 29.4583 30.6761V31.1491H24.0932V30.1094H27.9796C27.9767 29.8139 27.9128 29.5511 27.7878 29.321C27.6628 29.0881 27.4881 28.9048 27.2637 28.7713C27.0421 28.6378 26.7836 28.571 26.4881 28.571C26.1728 28.571 25.8958 28.6477 25.6571 28.8011C25.4185 28.9517 25.2324 29.1506 25.0989 29.3977C24.9682 29.642 24.9015 29.9105 24.8986 30.2031V31.1108C24.8986 31.4915 24.9682 31.8182 25.1074 32.0909C25.2466 32.3608 25.4412 32.5682 25.6912 32.7131C25.9412 32.8551 26.2338 32.9261 26.5691 32.9261C26.7935 32.9261 26.9966 32.8949 27.1784 32.8324C27.3603 32.767 27.5179 32.6719 27.6515 32.5469C27.785 32.4219 27.8858 32.267 27.954 32.0824L29.3944 32.2443C29.3034 32.625 29.1301 32.9574 28.8745 33.2415C28.6216 33.5227 28.2978 33.7415 27.9029 33.8977C27.508 34.0511 27.0563 34.1278 26.5478 34.1278ZM30.7633 34V27.4545H32.2377V28.5668H32.3145C32.4508 28.1918 32.6767 27.8991 32.992 27.6889C33.3074 27.4759 33.6838 27.3693 34.1213 27.3693C34.5645 27.3693 34.938 27.4773 35.242 27.6932C35.5488 27.9062 35.7647 28.1974 35.8897 28.5668H35.9579C36.1028 28.2031 36.3471 27.9134 36.6909 27.6974C37.0375 27.4787 37.448 27.3693 37.9224 27.3693C38.5247 27.3693 39.0162 27.5597 39.3968 27.9403C39.7775 28.321 39.9679 28.8764 39.9679 29.6065V34H38.421V29.8452C38.421 29.4389 38.313 29.142 38.0971 28.9545C37.8812 28.7642 37.617 28.669 37.3045 28.669C36.9324 28.669 36.6412 28.7855 36.4309 29.0185C36.2235 29.2486 36.1199 29.5483 36.1199 29.9176V34H34.6071V29.7812C34.6071 29.4432 34.5048 29.1733 34.3002 28.9716C34.0985 28.7699 33.8343 28.669 33.5076 28.669C33.286 28.669 33.0843 28.7259 32.9025 28.8395C32.7207 28.9503 32.5758 29.108 32.4679 29.3125C32.3599 29.5142 32.3059 29.75 32.3059 30.0199V34H30.7633ZM44.388 34.1278C43.7488 34.1278 43.1948 33.9872 42.726 33.706C42.2573 33.4247 41.8936 33.0312 41.6351 32.5256C41.3794 32.0199 41.2516 31.429 41.2516 30.7528C41.2516 30.0767 41.3794 29.4844 41.6351 28.9759C41.8936 28.4673 42.2573 28.0724 42.726 27.7912C43.1948 27.5099 43.7488 27.3693 44.388 27.3693C45.0272 27.3693 45.5811 27.5099 46.0499 27.7912C46.5186 28.0724 46.8809 28.4673 47.1365 28.9759C47.3951 29.4844 47.5243 30.0767 47.5243 30.7528C47.5243 31.429 47.3951 32.0199 47.1365 32.5256C46.8809 33.0312 46.5186 33.4247 46.0499 33.706C45.5811 33.9872 45.0272 34.1278 44.388 34.1278ZM44.3965 32.892C44.7431 32.892 45.0328 32.7969 45.2658 32.6065C45.4988 32.4134 45.6721 32.1548 45.7857 31.831C45.9022 31.5071 45.9604 31.1463 45.9604 30.7486C45.9604 30.348 45.9022 29.9858 45.7857 29.6619C45.6721 29.3352 45.4988 29.0753 45.2658 28.8821C45.0328 28.6889 44.7431 28.5923 44.3965 28.5923C44.0414 28.5923 43.7459 28.6889 43.5101 28.8821C43.2772 29.0753 43.1025 29.3352 42.986 29.6619C42.8723 29.9858 42.8155 30.348 42.8155 30.7486C42.8155 31.1463 42.8723 31.5071 42.986 31.831C43.1025 32.1548 43.2772 32.4134 43.5101 32.6065C43.7459 32.7969 44.0414 32.892 44.3965 32.892ZM48.8336 34V27.4545H50.3294V28.5455H50.3975C50.5169 28.1676 50.7214 27.8764 51.0112 27.6719C51.3038 27.4645 51.6376 27.3608 52.0126 27.3608C52.0978 27.3608 52.193 27.3651 52.2981 27.3736C52.4061 27.3793 52.4956 27.3892 52.5666 27.4034V28.8224C52.5012 28.7997 52.3975 28.7798 52.2555 28.7628C52.1163 28.7429 51.9814 28.733 51.8507 28.733C51.5694 28.733 51.3166 28.794 51.0922 28.9162C50.8706 29.0355 50.6958 29.2017 50.568 29.4148C50.4402 29.6278 50.3762 29.8736 50.3762 30.152V34H48.8336ZM54.7495 36.4545C54.5392 36.4545 54.3446 36.4375 54.1657 36.4034C53.9895 36.3722 53.8489 36.3352 53.7438 36.2926L54.1017 35.0909C54.3262 35.1563 54.5265 35.1875 54.7026 35.1847C54.8787 35.1818 55.0336 35.1264 55.1671 35.0185C55.3034 34.9134 55.4185 34.7372 55.5123 34.4901L55.6444 34.1364L53.2708 27.4545H54.9071L56.4157 32.3977H56.4838L57.9966 27.4545H59.6373L57.0165 34.7926C56.8944 35.1392 56.7324 35.4361 56.5307 35.6832C56.329 35.9332 56.0819 36.1236 55.7892 36.2543C55.4995 36.3878 55.1529 36.4545 54.7495 36.4545Z" fill="black"/>
</svg>
