<svg version="1.1" id="Layer_1" xmlns="http://www.w3.org/2000/svg" xmlns:xlink="http://www.w3.org/1999/xlink" x="0px" y="0px"
	 width="100%" viewBox="0 0 269 269" enable-background="new 0 0 269 269" xml:space="preserve">
<path fill="#F3F3F3" opacity="1.000000" stroke="none" 
	d="
M270.000000,98.000000 
	C270.000000,154.307388 269.966797,210.114838 270.084747,265.921967 
	C270.091614,269.172974 269.666901,270.110840 266.081421,270.105316 
	C178.955460,269.970459 91.829239,269.977875 4.703225,270.086945 
	C1.468825,270.091003 0.926833,269.218781 0.929835,266.206543 
	C1.016670,179.080460 1.014647,91.954285 0.936681,4.828204 
	C0.934060,1.899329 1.347882,0.902710 4.668492,0.907162 
	C91.961082,1.024193 179.253891,1.022409 266.546478,0.908338 
	C269.654449,0.904277 270.084747,1.687208 270.073853,4.543619 
	C269.955688,35.528725 270.000000,66.514442 270.000000,98.000000 
z"/>
<path fill="#1B1B1B" opacity="1.000000" stroke="none" 
	d="
M231.151520,227.647888 
	C229.005569,230.154495 227.601059,232.828323 224.387054,234.049149 
	C221.266220,234.021545 219.267410,235.950806 216.439743,236.923523 
	C161.091385,237.041412 106.182686,236.978302 51.273998,236.989868 
	C49.782352,236.990189 48.273594,237.114655 46.383041,236.400085 
	C45.948483,236.168045 45.909874,235.973221 45.977478,235.900482 
	C43.473839,234.851059 41.100475,233.441177 38.275581,232.204376 
	C37.995583,232.001938 38.000153,232.000000 37.998749,232.003052 
	C36.401020,228.984299 33.596375,226.478851 33.939716,222.151031 
	C33.404827,219.384308 33.586548,217.043198 33.586037,214.715851 
	C33.574711,162.894043 33.582634,111.072227 33.564201,59.250423 
	C33.563194,56.415150 33.695080,53.593864 33.881599,50.291611 
	C33.620594,49.193050 33.511505,48.559788 33.670612,47.458504 
	C33.989853,45.858189 34.479984,44.899773 35.711494,44.039406 
	C36.185894,43.756710 36.358326,43.619968 36.752037,43.238266 
	C38.403206,41.651829 39.833092,40.310349 41.604488,38.926628 
	C42.946712,39.017921 43.453846,38.341270 44.266785,37.527958 
	C45.050358,37.334988 45.508400,37.403919 46.312225,37.688576 
	C47.997086,38.091873 49.343834,37.971119 51.129597,38.002712 
	C106.912376,37.991863 162.248779,38.024487 218.033966,37.966774 
	C219.049179,37.878559 219.605301,37.761696 220.538239,37.524948 
	C222.351318,37.405067 222.766022,39.042683 224.344940,39.391933 
	C224.916000,39.517113 225.148117,39.547508 225.701202,39.720367 
	C228.303070,41.527573 229.998856,43.647167 231.006226,46.647484 
	C231.001450,47.568424 231.137711,48.092220 231.663025,48.762165 
	C231.920303,49.431515 232.004929,49.884937 232.022552,50.680325 
	C231.784042,51.290218 231.612549,51.558147 231.287491,52.279289 
	C231.786774,106.438332 231.245148,160.146286 231.413849,213.852997 
	C231.421677,216.345032 231.544495,218.842621 231.169907,221.780701 
	C231.011154,223.116440 231.003830,224.000290 231.200089,225.293274 
	C231.504959,226.235046 231.546371,226.779587 231.151520,227.647888 
z"/>
<path fill="#FBFCFB" opacity="1.000000" stroke="none" 
	d="
M46.071468,236.548325 
	C98.671509,236.129990 151.394547,236.092178 204.117569,236.053452 
	C208.442001,236.050278 212.766434,236.040894 217.553986,235.950623 
	C218.450104,235.587204 218.918304,235.502808 219.709152,235.851166 
	C219.565506,238.549316 217.610901,237.979889 216.053802,237.980484 
	C160.632065,238.001450 105.210320,238.001190 49.788586,237.985214 
	C48.518417,237.984848 47.065155,238.384094 46.071468,236.548325 
z"/>
<path fill="#050505" opacity="1.000000" stroke="none" 
	d="
M33.478176,49.350662 
	C35.659317,50.227959 34.960587,52.225079 34.961449,53.953094 
	C34.989471,109.992088 34.976559,166.031097 34.954330,222.539001 
	C34.630642,223.350525 34.244514,223.480118 33.544804,223.214096 
	C33.222157,222.834763 33.146378,222.668503 32.967491,222.248322 
	C31.815714,220.520630 32.013538,218.815689 32.013172,217.166245 
	C32.001293,163.555695 31.995735,109.945145 32.011425,56.334599 
	C32.011765,55.170841 31.979296,53.999737 32.612816,52.440075 
	C32.963840,51.272385 33.070599,50.538929 33.478176,49.350662 
z"/>
<path fill="#020202" opacity="1.000000" stroke="none" 
	d="
M219.545364,37.406937 
	C218.706512,39.749660 216.521133,38.959129 214.640732,38.960453 
	C160.080994,38.998886 105.521217,38.988083 50.494560,38.979431 
	C49.663277,38.639153 49.519993,38.222340 49.790565,37.464367 
	C91.327484,37.145554 132.640381,37.085495 173.953293,37.055115 
	C188.946350,37.044090 203.939468,37.103966 219.545364,37.406937 
z"/>
<path fill="#FBFCFC" opacity="1.000000" stroke="none" 
	d="
M32.472542,52.110107 
	C32.903057,82.258904 32.964760,112.511955 32.990234,142.765030 
	C33.012211,168.865158 32.992966,194.965317 32.928162,221.529938 
	C30.418440,221.521835 31.020073,219.561325 31.019426,218.013687 
	C30.996782,163.939560 30.997986,109.865425 31.015781,55.791294 
	C31.016197,54.525917 30.603174,53.065445 32.472542,52.110107 
z"/>
<path fill="#FBFCFB" opacity="1.000000" stroke="none" 
	d="
M232.062775,56.254662 
	C232.827393,56.007351 233.170029,56.008327 233.769821,56.010956 
	C234.700958,57.077709 234.477951,58.271400 234.477402,59.418442 
	C234.451859,113.314293 234.557053,167.210190 234.218994,221.555756 
	C233.662262,221.991257 233.319000,221.977020 232.718124,221.953918 
	C232.182007,221.774628 231.903503,221.604218 231.416748,220.990723 
	C230.983154,219.396423 231.007706,218.230026 231.007492,217.066437 
	C230.998016,165.172485 231.009308,113.278519 231.016571,61.384563 
	C231.016800,59.742233 230.751297,58.041843 232.062775,56.254662 
z"/>
<path fill="#262626" opacity="1.000000" stroke="none" 
	d="
M230.298492,224.244843 
	C230.006088,168.214783 230.001282,112.389275 230.017853,56.563770 
	C230.018341,54.915215 230.243866,53.266727 230.639786,51.306396 
	C232.013748,52.681091 231.455048,54.564739 231.457855,56.344883 
	C231.544098,111.271194 231.397385,166.197647 231.785889,221.559296 
	C232.019974,221.994598 232.220276,221.792206 232.340393,221.868622 
	C232.339172,222.409378 232.217804,222.873703 231.983795,223.681717 
	C231.507767,224.360046 231.080429,224.501404 230.298492,224.244843 
z"/>
<path fill="#010101" opacity="1.000000" stroke="none" 
	d="
M232.125641,221.536560 
	C230.145248,220.199738 231.041565,217.892700 231.039185,215.843475 
	C230.975647,161.206329 230.979279,106.569099 230.943314,51.463242 
	C231.088745,50.990501 231.262390,50.986416 231.695801,51.002312 
	C231.955551,51.022289 232.183655,51.098034 232.248627,50.996933 
	C232.398209,51.071926 232.482849,51.248028 232.489746,51.706703 
	C232.359695,53.067650 232.307419,54.146019 232.369934,55.615387 
	C232.431305,81.436478 232.365845,106.866562 232.327591,132.296677 
	C232.283066,161.890610 232.262360,191.484558 232.125641,221.536560 
z"/>
<path fill="#EBEBEB" opacity="1.000000" stroke="none" 
	d="
M234.059097,222.296066 
	C234.007584,166.985901 234.009644,111.966301 234.019333,56.479660 
	C235.520309,57.335384 234.976273,59.109867 234.977066,60.706917 
	C235.003387,113.618042 234.999695,166.529175 235.000305,219.440308 
	C235.000320,220.438583 235.005341,221.436966 234.990356,222.435028 
	C234.988297,222.570984 234.856995,222.827286 234.829132,222.821396 
	C234.584686,222.769775 234.350128,222.671265 234.059097,222.296066 
z"/>
<path fill="#020202" opacity="1.000000" stroke="none" 
	d="
M33.255783,223.306000 
	C33.663090,223.002182 34.028240,223.003326 34.666149,223.006195 
	C34.452351,226.295166 37.839436,228.181992 37.960388,231.634552 
	C37.042194,231.193100 36.087048,230.380081 35.005924,229.276794 
	C34.691307,228.733124 34.500328,228.481537 34.183357,228.029617 
	C34.059700,227.827515 34.048851,227.393814 33.963696,227.194321 
	C33.482761,226.530121 33.200535,226.022522 33.363251,225.099243 
	C33.375961,224.414444 33.294792,224.012711 33.255783,223.306000 
z"/>
<path fill="#020202" opacity="1.000000" stroke="none" 
	d="
M38.074829,232.327789 
	C41.032040,232.031281 43.508133,233.464386 45.964146,235.489136 
	C45.621162,235.796494 45.197239,235.765259 44.451191,235.709854 
	C43.530209,235.843765 42.959843,235.802399 42.218311,235.240570 
	C40.719238,234.242844 39.436657,233.448242 38.074829,232.327789 
z"/>
<path fill="#020202" opacity="1.000000" stroke="none" 
	d="
M220.291565,235.937836 
	C219.555389,236.053421 219.114182,236.018112 218.345032,235.924835 
	C219.068695,233.087646 221.546371,233.773529 223.846436,233.817322 
	C222.891205,234.652817 221.738861,235.219879 220.291565,235.937836 
z"/>
<path fill="#111112" opacity="1.000000" stroke="none" 
	d="
M49.623596,37.112209 
	C50.012527,37.589661 50.010471,37.985451 50.018044,38.677452 
	C48.783833,38.931381 47.484512,39.265991 46.139671,38.128765 
	C45.922310,37.824226 45.673332,37.410080 45.858715,37.255135 
	C47.106934,37.076973 48.169773,37.053761 49.623596,37.112209 
z"/>
<path fill="#FEFEFE" opacity="1.000000" stroke="none" 
	d="
M45.859283,36.835785 
	C46.044098,37.100185 45.985435,37.462578 45.953873,37.643402 
	C45.486427,37.825008 45.050549,37.825790 44.305717,37.939587 
	C43.808250,38.150978 43.619728,38.249352 43.218559,38.109985 
	C43.278561,36.173183 44.110081,35.620594 45.859283,36.835785 
z"/>
<path fill="#020202" opacity="1.000000" stroke="none" 
	d="
M225.219910,39.678055 
	C224.013626,39.946735 222.732712,40.295120 222.072815,38.470039 
	C222.158173,37.965054 222.301239,37.807858 222.721085,37.808945 
	C223.437439,38.296078 223.877014,38.624928 224.592667,38.998489 
	C225.004013,39.165485 225.139267,39.287769 225.219910,39.678055 
z"/>
<path fill="#FEFEFE" opacity="1.000000" stroke="none" 
	d="
M222.956482,37.657555 
	C222.997864,37.967228 222.502151,38.017326 222.258621,38.069786 
	C221.611435,37.973129 221.207764,37.824009 220.481140,37.678638 
	C220.158173,37.682384 220.018829,37.363075 219.933716,37.211086 
	C220.892670,36.922852 222.082321,35.240681 222.956482,37.657555 
z"/>
<path fill="#FBFCFB" opacity="1.000000" stroke="none" 
	d="
M232.675842,51.921295 
	C232.349014,51.811226 232.286057,51.633171 232.268341,51.175476 
	C232.956375,50.860188 232.938202,49.158901 233.805374,50.128345 
	C234.283051,50.662373 233.789459,51.542347 232.675842,51.921295 
z"/>
<path fill="#010101" opacity="1.000000" stroke="none" 
	d="
M231.863861,48.695927 
	C230.877121,48.831001 229.881622,48.712830 230.760773,47.156067 
	C231.292603,47.473553 231.592316,47.943657 231.863861,48.695927 
z"/>
<path fill="#FBFCFC" opacity="1.000000" stroke="none" 
	d="
M33.770279,48.578331 
	C33.778996,48.895851 33.463234,48.987503 33.303211,49.025173 
	C32.082092,48.336300 31.933178,47.666214 33.554039,47.047417 
	C33.815620,47.424961 33.788589,47.842884 33.770279,48.578331 
z"/>
<path fill="#010101" opacity="1.000000" stroke="none" 
	d="
M230.037460,224.336807 
	C230.422104,224.018356 230.836380,223.996414 231.560913,223.999939 
	C231.846176,224.429901 231.821198,224.834412 231.740723,225.540985 
	C231.613770,226.010269 231.542328,226.177475 231.253540,226.179901 
	C230.713165,225.554520 230.390137,225.093918 230.037460,224.336807 
z"/>
<path fill="#FBFCFC" opacity="1.000000" stroke="none" 
	d="
M33.181347,224.956543 
	C33.645809,225.350616 33.834492,225.885056 33.950859,226.707153 
	C32.814671,226.741302 31.649225,226.539871 33.181347,224.956543 
z"/>
<path fill="#FBFCFB" opacity="1.000000" stroke="none" 
	d="
M231.038254,226.341537 
	C231.036194,226.015121 231.347870,225.880646 231.516541,225.861847 
	C232.881561,226.634003 233.149368,227.349777 231.199432,227.935547 
	C230.934204,227.528854 230.987259,227.098404 231.038254,226.341537 
z"/>
<path fill="#FBFCFB" opacity="1.000000" stroke="none" 
	d="
M42.042942,235.343567 
	C42.584293,235.102585 43.166763,235.167709 43.939148,235.459259 
	C43.427002,236.832275 42.738541,237.206299 42.042942,235.343567 
z"/>
<path fill="#111112" opacity="1.000000" stroke="none" 
	d="
M42.795937,38.008617 
	C43.170940,37.902920 43.335972,37.933605 43.748886,38.008446 
	C43.818798,39.020618 43.767162,40.154209 42.102409,39.131554 
	C42.159317,38.637917 42.372639,38.391457 42.795937,38.008617 
z"/>
<path fill="#FBFCFC" opacity="1.000000" stroke="none" 
	d="
M36.772373,43.096512 
	C36.838341,43.316441 36.703362,43.639572 36.290924,43.928078 
	C36.121277,43.599327 36.307266,43.368080 36.772373,43.096512 
z"/>
<path fill="#FBFCFC" opacity="1.000000" stroke="none" 
	d="
M34.131519,228.062820 
	C34.360790,228.029556 34.661873,228.231613 34.921452,228.710083 
	C34.565495,228.844421 34.339954,228.614975 34.131519,228.062820 
z"/>
<path fill="#FEFEFE" opacity="1.000000" stroke="none" 
	d="
M225.381653,39.947525 
	C225.165268,39.946060 225.006348,39.498131 224.937546,39.270668 
	C225.195145,39.108906 225.484207,39.250725 225.879028,39.665741 
	C226.022156,39.862827 225.598053,39.948990 225.381653,39.947525 
z"/>
<path fill="#F2F2F3" opacity="1.000000" stroke="none" 
	d="
M109.261864,178.927872 
	C108.410011,179.106155 107.846954,179.273102 107.137238,179.701172 
	C106.587669,180.387985 106.039215,180.471115 105.352425,180.818848 
	C100.814354,183.782532 96.919014,186.972885 93.336388,190.816483 
	C90.904884,193.425110 87.164375,194.937531 84.298920,197.839996 
	C82.824043,198.076691 82.130356,198.887863 81.246445,199.939484 
	C80.585434,200.765350 80.096909,201.324738 79.331985,201.951340 
	C76.427292,203.387634 73.796585,204.742691 70.322556,203.245270 
	C69.933746,203.038589 69.996124,203.003952 69.978806,203.035141 
	C68.859016,201.008041 67.964989,198.969131 67.969070,196.489090 
	C68.035477,156.157745 67.956505,115.826256 68.041298,75.494835 
	C68.042351,74.993546 68.120163,74.498543 68.160049,73.511497 
	C68.147362,73.021454 68.056854,72.610634 68.065216,72.400467 
	C70.011490,67.861336 74.079437,67.772797 77.838158,67.660873 
	C85.831047,67.422882 93.834442,67.585289 101.833527,67.585220 
	C130.163681,67.584976 158.493835,67.574226 186.823990,67.592575 
	C191.073044,67.595329 195.291489,67.722404 197.715607,72.769852 
	C197.920486,73.209801 197.938950,73.641235 198.042633,73.830627 
	C199.789307,75.693420 200.013611,77.764854 200.011948,79.993027 
	C199.990692,108.347900 200.004974,136.702805 199.981110,165.057678 
	C199.979599,166.853027 200.262436,168.750336 198.492630,170.606903 
	C197.130920,172.653290 197.040710,175.039215 194.318512,175.867706 
	C192.168121,177.259323 190.225052,178.004303 187.958374,178.002518 
	C164.715286,177.984192 141.472153,178.026627 118.229057,177.968109 
	C117.392982,177.966003 116.574089,177.861938 115.396957,177.236023 
	C113.779045,176.802689 112.598305,176.853516 111.257980,177.774490 
	C110.596237,178.453781 110.138084,178.789856 109.261864,178.927872 
z"/>
<path fill="#181818" opacity="1.000000" stroke="none" 
	d="
M197.940536,72.826202 
	C195.434540,69.880638 192.163223,68.817711 187.996872,68.831253 
	C151.243393,68.950783 114.489349,68.898987 77.735474,68.889359 
	C74.403252,68.888489 71.015938,68.658699 68.398727,72.007301 
	C67.272537,67.781380 71.087700,68.339424 73.725922,67.108170 
	C74.975098,66.379066 75.992447,66.518280 76.978371,66.519043 
	C115.003693,66.548241 153.029083,66.443214 191.506134,66.772980 
	C195.487244,67.120750 197.539352,68.885872 197.940536,72.826202 
z"/>
<path fill="#F9F9F9" opacity="1.000000" stroke="none" 
	d="
M67.941666,73.390900 
	C69.644859,74.755943 68.967392,76.844986 68.969498,78.765694 
	C69.011200,116.803009 69.013420,154.840408 68.975021,192.877731 
	C68.971825,196.042191 69.120384,199.154648 69.963943,202.639023 
	C69.442619,202.509766 68.923744,201.953217 68.187248,201.195877 
	C67.543999,200.592865 67.208214,200.135529 67.071640,199.260925 
	C67.055389,159.018265 67.044571,119.063820 67.064621,79.109375 
	C67.065521,77.316002 66.629494,75.430237 67.941666,73.390900 
z"/>
<path fill="#262626" opacity="1.000000" stroke="none" 
	d="
M191.667664,66.684998 
	C152.969345,66.975655 113.980804,66.972847 74.532120,66.963821 
	C75.057037,65.700661 76.465805,66.008537 77.758507,66.008171 
	C114.821213,65.997765 151.883926,65.998756 188.946609,66.018684 
	C189.756958,66.019119 190.567154,66.261833 191.667664,66.684998 
z"/>
<path fill="#010101" opacity="1.000000" stroke="none" 
	d="
M198.477386,170.988464 
	C199.244080,158.387146 198.560394,145.771973 198.658249,133.169098 
	C198.795120,115.540344 198.745056,97.909988 198.720245,80.280388 
	C198.717697,78.469566 198.342499,76.659279 198.143265,74.434372 
	C198.673660,74.200447 199.200989,74.380882 199.883545,74.802399 
	C200.619949,75.945419 200.481918,76.962807 200.480927,77.948685 
	C200.450089,108.666214 200.560577,139.383820 200.218750,170.550018 
	C199.599686,170.998932 199.191498,170.999130 198.477386,170.988464 
z"/>
<path fill="#282728" opacity="1.000000" stroke="none" 
	d="
M200.301773,170.702560 
	C200.012177,139.322632 200.016479,107.646538 200.029785,75.506966 
	C201.273956,76.036736 200.988678,77.440025 200.989166,78.736458 
	C201.000320,108.483932 201.000946,138.231415 200.980927,167.978867 
	C200.980377,168.788132 200.729721,169.597214 200.301773,170.702560 
z"/>
<path fill="#050505" opacity="1.000000" stroke="none" 
	d="
M114.986374,177.232590 
	C138.577911,176.877151 162.162842,176.818222 185.747391,176.693588 
	C188.217773,176.680511 190.686127,176.279343 193.575180,176.046906 
	C193.945007,176.972595 193.620361,177.707748 192.281052,177.983795 
	C190.896866,178.699509 189.707504,178.478180 188.563873,178.477203 
	C164.353851,178.456497 140.143753,178.550827 115.475723,178.250702 
	C115.004990,177.879669 114.992310,177.694946 114.986374,177.232590 
z"/>
<path fill="#262626" opacity="1.000000" stroke="none" 
	d="
M115.320297,178.345184 
	C140.356125,178.048630 165.694580,178.032867 191.497055,178.026123 
	C190.974091,179.277054 189.572556,178.991302 188.277069,178.991806 
	C164.703934,179.001038 141.130814,178.998917 117.557693,178.978577 
	C116.912674,178.978027 116.267845,178.748657 115.320297,178.345184 
z"/>
<path fill="#F9F9F9" opacity="1.000000" stroke="none" 
	d="
M70.092407,203.365936 
	C72.768074,203.269821 75.501091,202.669525 78.642342,202.023270 
	C76.483078,204.481644 73.783066,206.274475 70.092407,203.365936 
z"/>
<path fill="#F9F9F9" opacity="1.000000" stroke="none" 
	d="
M81.366783,200.094650 
	C81.196983,198.652344 81.223099,197.010880 83.765755,197.697632 
	C83.201027,198.614929 82.430321,199.299133 81.366783,200.094650 
z"/>
<path fill="#050505" opacity="1.000000" stroke="none" 
	d="
M109.130951,179.181152 
	C109.448792,178.634598 109.924515,178.329971 110.698387,178.024658 
	C110.838242,178.991928 110.787117,180.090683 109.130951,179.181152 
z"/>
<path fill="#010101" opacity="1.000000" stroke="none" 
	d="
M66.818542,199.130264 
	C67.359474,199.454376 67.658600,199.936020 67.963669,200.706390 
	C66.998055,200.839859 65.907982,200.781296 66.818542,199.130264 
z"/>
<path fill="#050505" opacity="1.000000" stroke="none" 
	d="
M105.463684,180.959824 
	C105.613258,180.710403 106.028732,180.375717 106.717392,180.001678 
	C106.570251,180.266388 106.149918,180.570465 105.463684,180.959824 
z"/>
<path fill="#EBEBEB" opacity="1.000000" stroke="none" 
	d="
M153.141907,174.992676 
	C150.529709,174.992676 148.393188,174.992676 146.256668,174.992676 
	C146.257416,174.771820 146.258148,174.550964 146.258896,174.330109 
	C160.822540,174.330109 175.386200,174.330109 189.949844,174.330109 
	C189.952682,174.550964 189.955505,174.771820 189.958344,174.992676 
	C177.844742,174.992676 165.731155,174.992676 153.141907,174.992676 
z"/>
</svg>